<svg width="97" height="72" viewBox="0 0 97 72" fill="none" xmlns="http://www.w3.org/2000/svg">
<g clip-path="url(#clip0_37_2628)">
<path fill-rule="evenodd" clip-rule="evenodd" d="M37.6805 31.0096L36.8772 30.4071L37.226 30.0378C37.2029 29.4443 37.4757 28.7378 37.9954 28.1519C38.5653 27.5096 39.3148 27.1448 39.9456 27.1582L40.2914 26.792L40.8939 27.5953L40.8831 27.6069C41.3502 28.227 41.1644 29.3447 40.3613 30.2503C39.5099 31.2094 38.3398 31.5085 37.6834 31.0065L37.6805 31.0096Z" fill="url(#paint0_linear_37_2628)"/>
<path d="M39.8117 29.6872C40.7245 28.6584 40.9033 27.3264 40.2109 26.7122C39.5186 26.098 38.2174 26.4341 37.3046 27.4629C36.3918 28.4918 36.2131 29.8237 36.9054 30.438C37.5977 31.0522 38.8989 30.7161 39.8117 29.6872Z" fill="url(#paint1_linear_37_2628)"/>
<path d="M39.8244 29.6986C40.7316 28.6761 40.9001 27.3442 40.2009 26.7238C39.5016 26.1034 38.1993 26.4294 37.2921 27.4519C36.3849 28.4744 36.2163 29.8063 36.9156 30.4267C37.6148 31.0471 38.9172 30.7211 39.8244 29.6986Z" fill="#0052FE"/>
<path d="M10.3802 36.0672L19.2748 26.5371H14.5447L5.09816 36.4601V26.5371H0.847656V46.2689H5.09816V41.6167L7.58131 39.0396L13.4964 46.2689H18.4876L10.9819 36.8248L10.3802 36.0664V36.0672Z" fill="#0052FE"/>
<path d="M32.9822 35.3064C31.6599 33.2089 29.2338 31.9115 26.2759 31.9115C23.1147 31.9115 20.548 33.3945 19.2964 35.7443C18.7558 36.7509 18.4609 37.9197 18.4609 39.1962C18.4609 43.4556 21.7595 46.481 26.2759 46.481C30.7923 46.481 34.066 43.4556 34.066 39.1962C34.066 37.7285 33.6763 36.4062 32.9822 35.3064ZM26.2759 43.1142C24.2161 43.1142 22.6311 41.6416 22.6311 39.1962C22.6311 37.0931 23.8008 35.7097 25.4388 35.3643C25.7063 35.3056 25.9867 35.2767 26.2759 35.2767C26.4791 35.2767 26.6744 35.2896 26.8664 35.3209C28.6249 35.5748 29.8934 36.9895 29.8934 39.1962C29.8934 41.6416 28.3365 43.1142 26.2767 43.1142H26.2759Z" fill="#0052FE"/>
<path d="M40.9305 32.1218H36.8118V46.2696H40.9305V32.1218Z" fill="#0052FE"/>
<path d="M53.3954 31.9115C51.4673 31.9115 49.8036 32.5702 48.695 33.7785V32.122H44.761V46.2697H48.8789V39.2742C48.8789 38.2459 49.1007 37.4353 49.4951 36.8336C50.0928 35.9057 51.0889 35.4631 52.2867 35.4631C53.9055 35.4631 54.9193 36.293 55.125 38.0804C55.1515 38.3037 55.1643 38.5463 55.1643 38.8018V46.2689H57.433L59.2855 43.6966V38.172C59.2855 33.8572 56.7493 31.9115 53.3954 31.9115Z" fill="#0052FE"/>
<path d="M80.6956 26.4696L60.489 46.2697H66.7784L68.6245 43.6452L79.0801 28.7688L80.6956 26.4696Z" fill="url(#paint2_linear_37_2628)"/>
<path d="M74.7396 26.4696L74.0937 27.3677L63.953 41.4552L60.489 46.2697L80.6956 26.4696H74.7396Z" fill="url(#paint3_linear_37_2628)"/>
<path d="M78.6952 42.812L78.4342 42.4425C78.2164 42.134 77.8622 41.9508 77.4862 41.9508H72.7328C72.5569 41.9508 72.4203 42.0552 72.3552 42.1942L81.1414 46.2696L78.6952 42.812Z" fill="#F69300"/>
<path d="M72.3552 42.1945C72.2973 42.3182 72.2965 42.4692 72.3825 42.601L73.3586 44.0863H73.361L74.7966 46.2698H81.1422L72.356 42.1945H72.3552Z" fill="url(#paint4_linear_37_2628)"/>
<path d="M69.4985 30.1344L67.9938 27.9252L67.0025 26.4703H60.7942L69.4013 30.7048C69.57 30.5787 69.6334 30.3328 69.4993 30.1344H69.4985Z" fill="url(#paint5_linear_37_2628)"/>
<path d="M60.7935 26.4697L63.4421 30.288C63.4533 30.3032 63.4638 30.3161 63.475 30.3314C63.6943 30.6182 64.0342 30.7877 64.3973 30.7877H69.1531C69.2503 30.7877 69.333 30.7539 69.4013 30.7033L60.7943 26.4689L60.7935 26.4697Z" fill="#F69300"/>
<path d="M89.4295 27.2259H87.7571V31.6121H86.6269V27.2259H84.9773V26.3904H89.4295V27.2259ZM91.5415 26.3904L92.9457 30.1616L94.3441 26.3904H95.8225V31.6121H94.6809V30.1616L94.8065 27.69L93.3281 31.6121H92.5575L91.0848 27.6958L91.199 30.1616V31.6121H90.0745V26.3904H91.5415Z" fill="black"/>
</g>
<defs>
<linearGradient id="paint0_linear_37_2628" x1="40.9943" y1="27.7962" x2="37.9817" y2="31.3108" gradientUnits="userSpaceOnUse">
<stop stop-color="#3372F5"/>
<stop offset="0.249995" stop-color="#3372F5"/>
<stop offset="0.505208" stop-color="#80DBFB"/>
<stop offset="0.838547" stop-color="#3372F5"/>
<stop offset="1" stop-color="#3372F5"/>
</linearGradient>
<linearGradient id="paint1_linear_37_2628" x1="45.4545" y1="27.7846" x2="44.6486" y2="28.6918" gradientUnits="userSpaceOnUse">
<stop stop-color="#0080D4"/>
<stop offset="0.47" stop-color="white"/>
<stop offset="0.6" stop-color="#F1F8FC"/>
<stop offset="1" stop-color="#007DCC"/>
</linearGradient>
<linearGradient id="paint2_linear_37_2628" x1="76.1559" y1="31.7829" x2="68.3273" y2="40.8399" gradientUnits="userSpaceOnUse">
<stop stop-color="#FFAC00"/>
<stop offset="1" stop-color="#FE7801"/>
</linearGradient>
<linearGradient id="paint3_linear_37_2628" x1="60.489" y1="36.3701" x2="80.6956" y2="36.3701" gradientUnits="userSpaceOnUse">
<stop stop-color="#FFCE00"/>
<stop offset="1" stop-color="#FFB003"/>
</linearGradient>
<linearGradient id="paint4_linear_37_2628" x1="72.3142" y1="44.2326" x2="81.1414" y2="44.2326" gradientUnits="userSpaceOnUse">
<stop stop-color="#FE8B01"/>
<stop offset="1" stop-color="#FE7801"/>
</linearGradient>
<linearGradient id="paint5_linear_37_2628" x1="60.7934" y1="28.5872" x2="69.5716" y2="28.5872" gradientUnits="userSpaceOnUse">
<stop stop-color="#FFCE00"/>
<stop offset="1" stop-color="#FFC101"/>
</linearGradient>
<clipPath id="clip0_37_2628">
<rect width="96" height="24" fill="white" transform="translate(0.847656 24)"/>
</clipPath>
</defs>
</svg>
